<?xml version="1.0" standalone="no"?><svg xmlns="http://www.w3.org/2000/svg" viewBox="0 0 1440 320"><path fill="#79E6F2" fill-opacity="1" d="M0,192L30,213.3C60,235,120,277,180,293.3C240,309,300,299,360,277.3C420,256,480,224,540,186.7C600,149,660,107,720,112C780,117,840,171,900,170.7C960,171,1020,117,1080,106.7C1140,96,1200,128,1260,122.7C1320,117,1380,75,1410,53.3L1440,32L1440,320L1410,320C1380,320,1320,320,1260,320C1200,320,1140,320,1080,320C1020,320,960,320,900,320C840,320,780,320,720,320C660,320,600,320,540,320C480,320,420,320,360,320C300,320,240,320,180,320C120,320,60,320,30,320L0,320Z"></path></svg>